<?xml version="1.0" encoding="UTF-8"?>
<!DOCTYPE svg PUBLIC "-//W3C//DTD SVG 1.1//EN" "http://www.w3.org/Graphics/SVG/1.1/DTD/svg11.dtd">
<!-- Creator: CorelDRAW X6 -->
<svg xmlns="http://www.w3.org/2000/svg" xml:space="preserve" width="35.2776mm" height="35.2776mm" version="1.1" style="shape-rendering:geometricPrecision; text-rendering:geometricPrecision; image-rendering:optimizeQuality; fill-rule:evenodd; clip-rule:evenodd"
viewBox="0 0 2679 2679"
 xmlns:xlink="http://www.w3.org/1999/xlink">
 <defs>
  <style type="text/css">
   <![CDATA[
    .fil1 {fill:#FEFEFE}
    .fil0 {fill:url(#id0)}
    .fil2 {fill:url(#id1)}
   ]]>
  </style>
  <radialGradient id="id0" gradientUnits="objectBoundingBox" cx="50%" cy="-30.0001%" r="50%" fx="50%" fy="-30.0001%">
   <stop offset="0" style="stop-color:#78D2ED"/>
   <stop offset="0.180392" style="stop-color:#78D2ED"/>
   <stop offset="0.658824" style="stop-color:#4F9BD8"/>
   <stop offset="1" style="stop-color:#4F9BD8"/>
  </radialGradient>
  <radialGradient id="id1" gradientUnits="objectBoundingBox" cx="49.9998%" cy="-45%" r="50%" fx="49.9998%" fy="-45%">
   <stop offset="0" style="stop-color:#84CD47"/>
   <stop offset="0.34902" style="stop-color:#84CD47"/>
   <stop offset="0.568627" style="stop-color:#5CB234"/>
   <stop offset="1" style="stop-color:#5CB234"/>
  </radialGradient>
 </defs>
 <g id="Vrstva_x0020_1">
  <metadata id="CorelCorpID_0Corel-Layer"/>
  <rect class="fil0" width="2679" height="2679" rx="433" ry="433"/>
  <path class="fil1" d="M471 266l1942 0 0 1942c0,113 -92,205 -205,205l-1942 0 0 -1942c0,-113 92,-205 205,-205z"/>
  <path class="fil2" d="M458 2264l0 -1675c0,-87 93,-174 184,-174l1554 0 0 243c0,72 -34,134 -120,134l-1134 0 0 321 899 0c126,0 180,86 180,190 0,103 -73,185 -180,185l-899 0 0 374 1101 0c110,0 177,89 178,195 1,106 -73,207 -178,207l-1585 0z"/>
 </g>
</svg>
